<svg xmlns="http://www.w3.org/2000/svg" data-name="Layer 1" viewBox="-1.6 -3.2 35.2 43.2" x="0px" y="0px"><defs><style>
      .cls-1 {
        stroke-width: 0px;
      }
    </style></defs><path class="cls-1" d="m23,9.88h-14c-.55,0-1-.45-1-1s.45-1,1-1h14c.55,0,1,.45,1,1s-.45,1-1,1Zm4,6.12c0-.55-.45-1-1-1H6c-.55,0-1,.45-1,1s.45,1,1,1h20c.55,0,1-.45,1-1Zm-3,7.12c0-.55-.45-1-1-1h-14c-.55,0-1,.45-1,1s.45,1,1,1h14c.55,0,1-.45,1-1Z"/><text x="0.0" y="37.6" font-size="1.6" font-weight="bold" font-family="Arbeit Regular, Helvetica, Arial-Unicode, Arial, Sans-serif" fill="#000000">Created by Jessiey</text><text x="0.0" y="39.2" font-size="1.6" font-weight="bold" font-family="Arbeit Regular, Helvetica, Arial-Unicode, Arial, Sans-serif" fill="#000000">from Noun Project</text></svg>